<svg width="135" height="40" viewBox="0 0 135 40" fill="none" xmlns="http://www.w3.org/2000/svg">
<g clip-path="url(#clip0_789_26223)">
<path d="M130 0H5C2.23858 0 0 2.23858 0 5V35C0 37.7614 2.23858 40 5 40H130C132.761 40 135 37.7614 135 35V5C135 2.23858 132.761 0 130 0Z" fill="black"/>
<path d="M130 0.8C132.32 0.8 134.2 2.68 134.2 5V35C134.2 37.32 132.32 39.2 130 39.2H5C2.68 39.2 0.8 37.32 0.8 35V5C0.8 2.68 2.68 0.8 5 0.8H130ZM130 0H5C2.25 0 0 2.25 0 5V35C0 37.75 2.25 40 5 40H130C132.75 40 135 37.75 135 35V5C135 2.25 132.75 0 130 0Z" fill="#A6A6A6"/>
<path d="M47.4194 10.2404C47.4194 11.0804 47.1694 11.7504 46.6694 12.2404C46.1094 12.8304 45.3794 13.1304 44.4694 13.1304C43.5594 13.1304 42.8594 12.8304 42.2594 12.2304C41.6594 11.6304 41.3594 10.8804 41.3594 10.0004C41.3594 9.12035 41.6594 8.37035 42.2594 7.77035C42.8594 7.17035 43.5994 6.86035 44.4694 6.86035C44.9094 6.86035 45.3294 6.94035 45.7194 7.09035C46.1094 7.25035 46.4294 7.47035 46.6794 7.75035L46.1294 8.30035C45.9494 8.08035 45.7094 7.90035 45.4094 7.78035C45.1194 7.65035 44.7994 7.59035 44.4694 7.59035C43.8194 7.59035 43.2594 7.82035 42.8094 8.27035C42.3594 8.73035 42.1394 9.30035 42.1394 9.99035C42.1394 10.6804 42.3594 11.2504 42.8094 11.7104C43.2594 12.1604 43.8094 12.3904 44.4694 12.3904C45.0694 12.3904 45.5594 12.2204 45.9594 11.8904C46.3594 11.5604 46.5894 11.0904 46.6494 10.5104H44.4694V9.79035H47.3794C47.4094 9.95035 47.4194 10.1004 47.4194 10.2404Z" fill="white" stroke="white" stroke-width="0.2" stroke-miterlimit="10"/>
<path d="M52.0312 7V7.74H49.3013V9.64H51.7612V10.36H49.3013V12.26H52.0312V13H48.5312V7H52.0312Z" fill="white" stroke="white" stroke-width="0.2" stroke-miterlimit="10"/>
<path d="M55.2781 7.74V13H54.5081V7.74H52.8281V7H56.9481V7.74H55.2681H55.2781Z" fill="white" stroke="white" stroke-width="0.2" stroke-miterlimit="10"/>
<path d="M60.7075 13H59.9375V7H60.7075V13Z" fill="white" stroke="white" stroke-width="0.2" stroke-miterlimit="10"/>
<path d="M64.1297 7.74V13H63.3597V7.74H61.6797V7H65.7997V7.74H64.1197H64.1297Z" fill="white" stroke="white" stroke-width="0.2" stroke-miterlimit="10"/>
<path d="M74.4886 10.0004C74.4886 10.8904 74.1886 11.6304 73.5986 12.2304C72.9986 12.8304 72.2686 13.1304 71.3986 13.1304C70.5286 13.1304 69.7986 12.8304 69.1986 12.2304C68.6086 11.6304 68.3086 10.8904 68.3086 10.0004C68.3086 9.11035 68.6086 8.37035 69.1986 7.77035C69.7886 7.17035 70.5186 6.86035 71.3986 6.86035C72.2786 6.86035 72.9986 7.16035 73.5986 7.77035C74.1886 8.37035 74.4886 9.11035 74.4886 9.99035V10.0004ZM69.1086 10.0004C69.1086 10.6904 69.3286 11.2704 69.7586 11.7204C70.1986 12.1704 70.7486 12.4004 71.3986 12.4004C72.0486 12.4004 72.5986 12.1704 73.0286 11.7204C73.4686 11.2704 73.6886 10.7004 73.6886 10.0004C73.6886 9.30035 73.4686 8.73035 73.0286 8.28035C72.5886 7.83035 72.0486 7.60035 71.3986 7.60035C70.7486 7.60035 70.1986 7.83035 69.7586 8.28035C69.3186 8.73035 69.1086 9.31035 69.1086 10.0004Z" fill="white" stroke="white" stroke-width="0.2" stroke-miterlimit="10"/>
<path d="M76.3403 13H75.5703V7H76.5103L79.4303 11.67H79.4603L79.4303 10.51V7H80.2003V13H79.4003L76.3503 8.11H76.3203L76.3503 9.27V13.01L76.3403 13Z" fill="white" stroke="white" stroke-width="0.2" stroke-miterlimit="10"/>
<path d="M68.1408 21.75C65.7908 21.75 63.8708 23.54 63.8708 26C63.8708 28.46 65.7908 30.25 68.1408 30.25C70.4908 30.25 72.4108 28.45 72.4108 26C72.4108 23.55 70.4908 21.75 68.1408 21.75ZM68.1408 28.58C66.8508 28.58 65.7408 27.52 65.7408 26C65.7408 24.48 66.8508 23.42 68.1408 23.42C69.4308 23.42 70.5408 24.47 70.5408 26C70.5408 27.53 69.4308 28.58 68.1408 28.58ZM58.8308 21.75C56.4808 21.75 54.5608 23.54 54.5608 26C54.5608 28.46 56.4808 30.25 58.8308 30.25C61.1808 30.25 63.1008 28.45 63.1008 26C63.1008 23.55 61.1808 21.75 58.8308 21.75ZM58.8308 28.58C57.5408 28.58 56.4308 27.52 56.4308 26C56.4308 24.48 57.5408 23.42 58.8308 23.42C60.1208 23.42 61.2308 24.47 61.2308 26C61.2308 27.53 60.1208 28.58 58.8308 28.58ZM47.7508 23.05V24.85H52.0708C51.9408 25.86 51.6008 26.61 51.0908 27.12C50.4608 27.75 49.4808 28.44 47.7608 28.44C45.1008 28.44 43.0208 26.3 43.0208 23.64C43.0208 20.98 45.1008 18.84 47.7608 18.84C49.1908 18.84 50.2408 19.4 51.0108 20.13L52.2808 18.86C51.2008 17.83 49.7708 17.04 47.7508 17.04C44.1108 17.04 41.0508 20 41.0508 23.65C41.0508 27.3 44.1108 30.26 47.7508 30.26C49.7208 30.26 51.2008 29.62 52.3608 28.41C53.5508 27.22 53.9208 25.54 53.9208 24.19C53.9208 23.77 53.8908 23.38 53.8208 23.06H47.7508V23.05ZM93.0608 24.45C92.7108 23.5 91.6308 21.74 89.4208 21.74C87.2108 21.74 85.4108 23.46 85.4108 25.99C85.4108 28.37 87.2108 30.24 89.6308 30.24C91.5808 30.24 92.7108 29.05 93.1708 28.36L91.7208 27.39C91.2408 28.1 90.5808 28.57 89.6308 28.57C88.6808 28.57 88.0008 28.14 87.5708 27.28L93.2608 24.93L93.0708 24.45H93.0608ZM87.2608 25.87C87.2108 24.23 88.5308 23.39 89.4808 23.39C90.2208 23.39 90.8508 23.76 91.0608 24.29L87.2608 25.87ZM82.6408 29.99H84.5108V17.49H82.6408V29.99ZM79.5808 22.69H79.5208C79.1008 22.19 78.3008 21.74 77.2808 21.74C75.1508 21.74 73.2008 23.61 73.2008 26.01C73.2008 28.41 75.1508 30.25 77.2808 30.25C78.2908 30.25 79.1008 29.8 79.5208 29.28H79.5808V29.89C79.5808 31.52 78.7108 32.39 77.3108 32.39C76.1708 32.39 75.4608 31.57 75.1708 30.88L73.5408 31.56C74.0108 32.69 75.2508 34.07 77.3108 34.07C79.5008 34.07 81.3508 32.78 81.3508 29.64V22H79.5808V22.69ZM77.4408 28.57C76.1508 28.57 75.0708 27.49 75.0708 26.01C75.0708 24.53 76.1508 23.42 77.4408 23.42C78.7308 23.42 79.7108 24.52 79.7108 26.01C79.7108 27.5 78.7108 28.57 77.4408 28.57ZM101.821 17.49H97.3508V29.99H99.2208V25.25H101.831C103.901 25.25 105.931 23.75 105.931 21.37C105.931 18.99 103.901 17.49 101.831 17.49H101.821ZM101.871 23.52H99.2208V19.23H101.871C103.271 19.23 104.061 20.39 104.061 21.37C104.061 22.35 103.271 23.51 101.871 23.51V23.52ZM113.401 21.72C112.051 21.72 110.651 22.32 110.071 23.63L111.731 24.32C112.081 23.63 112.741 23.4 113.431 23.4C114.391 23.4 115.381 23.98 115.391 25.01V25.14C115.051 24.95 114.331 24.66 113.441 24.66C111.651 24.66 109.841 25.64 109.841 27.47C109.841 29.14 111.301 30.22 112.941 30.22C114.191 30.22 114.891 29.66 115.321 29H115.381V29.96H117.181V25.17C117.181 22.95 115.521 21.71 113.381 21.71L113.401 21.72ZM113.171 28.57C112.561 28.57 111.711 28.26 111.711 27.51C111.711 26.55 112.771 26.18 113.691 26.18C114.511 26.18 114.901 26.36 115.391 26.6C115.251 27.76 114.251 28.58 113.171 28.58V28.57ZM123.751 21.99L121.611 27.41H121.551L119.331 21.99H117.321L120.651 29.57L118.751 33.78H120.701L125.831 21.99H123.761H123.751ZM106.941 29.99H108.811V17.49H106.941V29.99Z" fill="white"/>
<path d="M20.7203 19.4192L10.0703 30.7192C10.4003 31.9492 11.5203 32.8492 12.8503 32.8492C13.3803 32.8492 13.8803 32.7092 14.3103 32.4492L14.3403 32.4292L26.3203 25.5192L20.7103 19.4092L20.7203 19.4192Z" fill="#EA4335"/>
<path d="M31.4905 17.4993H31.4805L26.3105 14.4893L20.4805 19.6793L26.3305 25.5293L31.4805 22.5593C32.3805 22.0693 32.9905 21.1193 32.9905 20.0293C32.9905 18.9393 32.3905 17.9893 31.4905 17.5093V17.4993Z" fill="#FBBC04"/>
<path d="M10.0687 9.2793C10.0087 9.5193 9.96875 9.7593 9.96875 10.0193V29.9893C9.96875 30.2493 9.99875 30.4893 10.0687 30.7293L21.0787 19.7193L10.0687 9.2793Z" fill="#4285F4"/>
<path d="M20.8003 19.9996L26.3103 14.4896L14.3403 7.54965C13.9103 7.28965 13.4003 7.13965 12.8503 7.13965C11.5203 7.13965 10.4003 8.04965 10.0703 9.26965L20.8003 19.9896V19.9996Z" fill="#34A853"/>
</g>
<defs>
<clipPath id="clip0_789_26223">
<rect width="135" height="40" fill="white"/>
</clipPath>
</defs>
</svg>
